<svg xmlns="http://www.w3.org/2000/svg" viewBox="0 0 32 32"><path d="M19.42 7.21c.23-.01.46.01.69.03a8.35 8.35 0 0 1 1.72.36c.69.22 1.34.51 1.96.87l.08.05.33.23c.17.11.32.25.47.38l.28.25c.03.02.05.04.07.06a1.21 1.21 0 0 0 .16.16c.07.06.13.14.19.21.03.03.05.06.08.09.2.21.37.45.54.69l.51.79c.29.49.53 1 .73 1.54l.26.71.2.61.26 1.04.13.68.08.6.03.28c.01.05.01.1.02.15 0 .05 0 .1.02.15.01.02 0 .04 0 .07 0 .05 0 .1.01.15.01.03 0 .07 0 .11a1.34 1.34 0 0 0 .01.2c.01.03 0 .05 0 .08v1.02.07c-.02.07-.01.15-.02.23 0 .03 0 .06-.01.09 0 .04-.01.08-.01.12s0 .08-.01.12c0 .01-.01.03-.01.04a2.71 2.71 0 0 1-.04.4l-.08.62-.13.66-.06.3-.08.34-.06.23-.09.3-.1.32c-.02.08-.05.15-.08.23l-.16.44-.29.71-.06.15-.22.44-.03.06c-.03.07-.06.14-.1.2l-.28.5-.17.29-.26.41-.32.46-.29.38-.17.22-.02.02-.23.26-.24.26c-.02.03-.05.05-.07.08l-.43.44-.47.43-.47.38-.48.36c-.23.17-.46.32-.71.47l-.59.34-.57.28-.43.19a8.96 8.96 0 0 1-1.23.43l-.12.03-.64.16-.59.12a.77.77 0 0 1-.15.02c-.12.01-.25.04-.37.05-.09.01-.18.03-.28.03-.05 0-.11.01-.16.01s-.11.01-.16.01c-.05.01-.1 0-.15 0-.07 0-.14-.01-.21.02-.02.01-.05 0-.08 0h-.55-.07c-.08-.03-.17-.02-.25-.02-.05 0-.11 0-.16-.01-.02 0-.04 0-.05-.01l-.29-.02c-.06-.01-.11-.02-.17-.02l-.44-.05c-.18-.02-.35-.06-.53-.1l-.47-.1c-.05-.01-.1-.02-.14-.04l-.66-.19-.09-.03-.39-.14-.75-.31-.06-.03c-.12-.05-.23-.11-.35-.17l-.43-.23-.58-.34-.47-.31-.5-.37c-.26-.19-.5-.41-.74-.62L7.72 28l-.55-.59a1.07 1.07 0 0 1-.14-.16c0-.01-.01-.01-.02-.02-.13-.14-.24-.29-.36-.44l-.27-.36c-.11-.13-.2-.28-.29-.42l-.26-.41c-.1-.15-.19-.31-.28-.47l-.27-.51-.1-.19-.28-.61-.11-.26-.13-.32-.18-.51-.2-.63-.03-.13-.19-.77-.14-.74c-.02-.08-.02-.17-.03-.25l-.03-.29c-.01-.07-.02-.13-.02-.2 0-.09-.02-.19-.03-.28 0-.07-.01-.13-.01-.2 0-.05-.01-.11-.02-.16v-.16-.03c-.04-.07-.03-.14-.03-.21v-.91c0-.05 0-.1.02-.14.01-.01.01-.03.01-.05v-.08-.08l.02-.28c0-.04.01-.09.01-.13l.03-.24.05-.47c.01-.11.03-.21.05-.32l.12-.65.17-.7.18-.62.34-.96.25-.59.28-.58.32-.6.44-.71.38-.55.26-.36A1.63 1.63 0 0 1 7.75 9c.59-.1 1.18.11 1.56.55a1.55 1.55 0 0 1 .39 1.13c-.02.32-.13.61-.33.87-.01.01-.02.03-.03.04-.26.3-.47.63-.68.97a8.3 8.3 0 0 0-.41.78c-.1.21-.18.42-.26.63-.11.31-.21.62-.28.94-.07.29-.13.58-.16.87l-.05.49v.03c-.02.1-.02.2-.02.29v.04c-.02.15-.01.3-.01.46 0 .06.01.12.01.17 0 .06-.01.12 0 .17.02.14.01.29.04.43 0 .09.02.19.03.28l.12.65a9.65 9.65 0 0 0 .26.92l.27.67.22.46a7.24 7.24 0 0 0 .41.71l.55.76.25.3c.18.21.39.4.58.59.09.09.2.18.3.27l.29.24.29.21.68.43.44.23.9.38.73.23.81.17a4.53 4.53 0 0 0 .5.06c.1.01.2.03.31.02h.04a1.23 1.23 0 0 0 .27.02h.52c.04 0 .09 0 .13-.01.02-.01.04-.01.05-.01.14 0 .29-.02.43-.03l.45-.06.45-.09c.33-.07.65-.16.97-.27.08-.03.15-.06.22-.1.04-.02.08-.05.11-.09l.06-.09c.03-.07.02-.13-.04-.19-.03-.03-.07-.06-.11-.08-.06-.03-.13-.05-.19-.06l-.28-.04a7.01 7.01 0 0 1-1.36-.37l-.42-.17-.66-.34c-.75-.43-1.41-.96-1.99-1.6-.46-.5-.84-1.06-1.17-1.65-.3-.55-.53-1.12-.71-1.72-.08-.27-.14-.54-.19-.81-.05-.23-.08-.47-.1-.7l-.04-.45c-.03-.34-.02-.68-.01-1.02 0-.26.01-.53.04-.79l.07-.6.08-.45.19-.84c.19-.68.46-1.33.82-1.94.56-.94 1.31-1.71 2.22-2.32l.43-.28c.36-.24.75-.42 1.15-.58a6.7 6.7 0 0 1 1.24-.34c.26-.05.52-.08.79-.09.16-.06.33-.07.5-.07zm.56 4.27h-.09c-.28-.01-.55.03-.81.1-.84.21-1.54.65-2.08 1.32-.49.61-.77 1.31-.84 2.09a3.76 3.76 0 0 0 .1 1.25 3.84 3.84 0 0 0 3.29 2.88c.38.05.77.03 1.15-.04a3.85 3.85 0 0 0 2.49-1.66 3.78 3.78 0 0 0 .62-1.86c.03-.36-.01-.72-.08-1.07a3.81 3.81 0 0 0-2.35-2.74c-.43-.17-.88-.27-1.35-.25-.02-.02-.04-.02-.05-.02z" fill="#008b5b"/><path d="M19.32 3.17c-.01-.1.02-.25.03-.39 0-.02.01-.04.01-.05l.1-.39a3.06 3.06 0 0 1 .11-.27c.11-.23.25-.43.41-.63.17-.2.36-.36.57-.5.08-.06.17-.1.26-.14l.28-.13c.2-.08.41-.13.62-.15.15-.01.29-.03.43-.02.13.01.26.02.39.05l.16.03c.11.02.2.07.3.1a2.53 2.53 0 0 1 .37.18c.13.08.26.16.37.26a2.88 2.88 0 0 1 .52.58c.06.09.12.19.17.29a2.75 2.75 0 0 1 .2.57c0 .01.01.03.01.04.03.19.06.37.06.56 0 .16-.02.32-.03.48 0 .02-.01.04-.02.07l-.06.23c-.06.24-.17.46-.3.67a2.59 2.59 0 0 1-.32.42 2.73 2.73 0 0 1-.48.41c-.07.04-.13.09-.2.13a.23.23 0 0 1-.14.02c-.07-.01-.12-.05-.14-.11-.01-.05-.03-.09-.04-.14-.06-.25-.19-.46-.37-.64-.16-.16-.36-.27-.58-.33-.58-.14-1.11.09-1.4.48-.03.05-.07.09-.11.14-.07.08-.16.13-.27.13-.08 0-.14-.02-.2-.07a1.15 1.15 0 0 1-.21-.23c-.19-.27-.33-.55-.42-.87-.04-.25-.08-.49-.08-.78zm-1.75.94c.01.1-.02.2-.02.31-.01.1-.03.19-.06.29-.01.03-.02.05-.03.07-.04.09-.12.13-.21.14-.06.01-.12-.01-.19-.02-.07-.02-.15-.05-.22-.06-.1-.02-.19-.04-.29-.04a1.12 1.12 0 0 0-.36.05 1.29 1.29 0 0 0-.91.82l-.08.24-.03.08a.49.49 0 0 1-.55.31l-.12-.03c-.27-.1-.52-.24-.73-.44-.16-.15-.3-.31-.41-.49-.12-.21-.21-.43-.27-.67-.02-.09-.04-.18-.04-.26 0-.04 0-.08-.01-.12-.03-.17 0-.34.02-.51.02-.15.07-.3.12-.44.06-.16.14-.31.23-.45.16-.23.34-.43.57-.6a2.38 2.38 0 0 1 .88-.38c.13-.03.27-.03.4-.05.28.01.55.04.81.14a2.32 2.32 0 0 1 .47.24c.23.15.32.24.49.44a2.09 2.09 0 0 1 .3.47c.07.15.13.3.16.45l.07.45c.01.01.01.04.01.06z" fill="#d4af37"/></svg>